# AST/ASF file generated using VICON BodyLanguage
# -----------------------------------------------
:version 1.10
:name VICON
:units
  mass 1.0
  length 0.45
  angle deg
:documentation
   .ast/.asf automatically generated from VICON data using
   VICON BodyBuilder and BodyLanguage model FoxedUp or BRILLIANT.MOD
:root
   order TX TY TZ RX RY RZ
   axis XYZ
   position 0 0 0  
   orientation 0 0 0 
:bonedata
  begin
     id 1 
     name lhipjoint
     direction 0.570549 -0.739093 0.358072 
     length 2.41801 
     axis 0 0 0  XYZ
  end
  begin
     id 2 
     name lfemur
     direction 0.34202 -0.939693 0  
     length 7.44434  
     axis 0 0 20  XYZ
    dof rx ry rz
    limits (-160.0 20.0)
           (-70.0 70.0)
           (-60.0 70.0)
  end
  begin
     id 3 
     name ltibia
     direction 0.34202 -0.939693 0   
     length 7.60047   
     axis 0 0 20   XYZ
    dof rx
    limits (-10.0 170.0)
  end
  begin
     id 4 
     name lfoot
     direction 0.0909041 -0.249757 0.964032   
     length 2.03437   
     axis -90 7.62852e-016 20   XYZ
    dof rx rz
    limits (-45.0 90.0)
           (-70.0 20.0)
  end
  begin
     id 5 
     name ltoes
     direction 1.53547e-011 -4.2174e-011 1   
     length 1.02054   
     axis -90 7.62852e-016 20   XYZ
    dof rx
    limits (-90.0 20.0)
  end
  begin
     id 6 
     name rhipjoint
     direction -0.558096 -0.746754 0.361784   
     length 2.3932  
     axis 0 0 0  XYZ 
  end
  begin
     id 7 
     name rfemur
     direction -0.34202 -0.939693 0   
     length 7.3886   
     axis 0 0 -20   XYZ
    dof rx ry rz
    limits (-160.0 20.0)
           (-70.0 70.0)
           (-70.0 60.0)
  end
  begin
     id 8 
     name rtibia
     direction -0.34202 -0.939693 0   
     length 7.4839   
     axis 0 0 -20   XYZ
    dof rx
    limits (-10.0 170.0)
 end
 begin
     id 9 
     name rfoot
     direction -0.114619 -0.314914 0.942174   
     length 2.25127  
     axis -90 -7.62852e-016 -20   XYZ
    dof rx rz
    limits (-45.0 90.0)
           (-20.0 70.0)
  end
  begin
     id 10 
     name rtoes
     direction -1.53518e-011 -4.21881e-011 1   
     length 1.11821   
     axis -90 -7.62852e-016 -20   XYZ
    dof rx
    limits (-90.0 20.0)
  end
  begin
     id 11 
     name lowerback
     direction -0.00902269 0.996426 -0.0839821   
     length 2.25052   
     axis 0 0 0   XYZ
    dof rx ry rz
    limits (-20.0 45.0)
           (-30.0 30.0)
           (-30.0 30.0)
  end
  begin
     id 12 
     name upperback
     direction 0.0370973 0.999169 -0.0168941   
     length 2.24876   
     axis 0 0 0   XYZ
    dof rx ry rz
    limits (-20.0 45.0)
           (-30.0 30.0)
           (-30.0 30.0)
  end
  begin
     id 13 
     name thorax
     direction 0.0402726 0.998931 0.0227027   
     length 2.26408   
     axis 0 0 0   XYZ
    dof rx ry rz
    limits (-20.0 45.0)
           (-30.0 30.0)
           (-30.0 30.0)
  end
  begin
     id 14 
     name lowerneck
     direction -0.0733697 0.98508 0.155675   
     length 1.58204   
     axis 0 0 0   XYZ
    dof rx ry rz
    limits (-20.0 45.0)
           (-30.0 30.0)
           (-30.0 30.0)
  end
  begin
     id 15 
     name upperneck
     direction 0.0426554 0.993501 -0.105526   
     length 1.61222   
     axis 0 0 0   XYZ
    dof rx ry rz
    limits (-20.0 45.0)
           (-30.0 30.0)
           (-30.0 30.0)
  end
  begin
     id 16
     name head
     direction 0.020792 0.998384 -0.0528868  
     length 1.61527  
     axis 0 0 0   XYZ
    dof rx ry rz
    limits (-20.0 45.0)
           (-30.0 30.0)
           (-30.0 30.0)
  end
  begin
     id 17 
     name lclavicle
     direction 0.967109 0.155462 -0.201325  
     length 3.59357  
     axis 0 0 0   XYZ
    dof ry rz
    limits (-20.0 10.0)
           (0.0 20.0)
  end
  begin
     id 18 
     name lhumerus
     direction 1 -4.48968e-011 2.38195e-027   
     length 5.38154   
     axis 180 -30 -90   XYZ
    dof rx ry rz
    limits (-60.0 90.0)
           (-90.0 90.0)
           (-90.0 90.0)
  end
  begin
     id 19
     name lradius
     direction 1 -4.48961e-011 4.85371e-027   
     length 3.33312   
     axis 180 -30 -90   XYZ
    dof rx
    limits (-10.0 170.0)
  end
  begin
     id 20
     name lwrist
     direction 1 -4.48961e-011 4.76515e-027   
     length 1.66656   
     axis -3.27502e-015 90 90   XYZ
    dof ry
    limits (-180.0 0.0)
 end
  begin
     id 21 
     name lhand
     direction 1 -4.48951e-011 9.53074e-027   
     length 0.710789   
     axis -6.08098e-015 90 90   XYZ
    dof rx rz
    limits (-90.0 90.0)
           (-45.0 45.0)
  end
  begin
     id 22 
     name lfingers
     direction 1 -4.48953e-011 1.90613e-026   
     length 0.573057   
     axis -1.21619e-014 90 90   XYZ
    dof rx
    limits (0.0 90.0)
  end
  begin
     id 23
     name lthumb
     direction 0.707107 -6.34973e-011 0.707107   
     length 0.822798   
     axis -90 45 -9.86923e-015   XYZ
    dof rx rz
    limits (-45.0 45.0)
           (-45.0 45.0)
  end
  begin
     id 24 
     name rclavicle
     direction -0.9585 0.265289 -0.104398   
     length 3.42039  
     axis 0 0 0   XYZ 
    dof ry rz
    limits (-10.0 20.0)
           (-20.0 0.0)
  end
  begin
     id 25 
     name rhumerus
     direction -1 -4.48977e-011 2.21478e-027  
     length 5.16954   
     axis 180 30 90   XYZ
    dof rx ry rz
    limits (-90.0 60.0)
           (-90.0 90.0)
           (-90.0 90.0)
  end
  begin
     id 26 
     name rradius
     direction -1 -4.48967e-011 5.63677e-027   
     length 3.38287   
     axis 180 30 90   XYZ
    dof rx
    limits (-10.0 170.0)
  end
  begin
     id 27 
     name rwrist
     direction -1 -4.48967e-011 4.76501e-027   
     length 1.69144   
     axis -3.27502e-015 -90 -90   XYZ
    dof ry
    limits (-180.0 0.0)
  end
  begin
     id 28
     name rhand
     direction -1 -4.48902e-011 9.53292e-027   
     length 0.817967   
     axis -6.08098e-015 -90 -90   XYZ
    dof rx rz
    limits (-90.0 90.0)
           (-45.0 45.0)
  end
  begin
     id 29
     name rfingers
     direction -1 -4.49012e-011 1.90561e-026   
     length 0.659466   
     axis -1.21619e-014 -90 -90   XYZ
    dof rx
    limits (0.0 90.0)
  end
  begin
     id 30
     name rthumb
     direction -0.707107 -6.34944e-011 0.707107   
     length 0.946865   
     axis -90 -45 9.86923e-015   XYZ
    dof rx rz
    limits (-45.0 45.0)
           (-45.0 45.0)
  end
:hierarchy
  begin
    root lhipjoint rhipjoint lowerback
    lhipjoint lfemur
    lfemur ltibia
    ltibia lfoot
    lfoot ltoes
    rhipjoint rfemur
    rfemur rtibia
    rtibia rfoot
    rfoot rtoes
    lowerback upperback
    upperback thorax
    thorax lowerneck lclavicle rclavicle
    lowerneck upperneck
    upperneck head
    lclavicle lhumerus
    lhumerus lradius
    lradius lwrist
    lwrist lhand lthumb
    lhand lfingers
    rclavicle rhumerus
    rhumerus rradius
    rradius rwrist
    rwrist rhand rthumb
    rhand rfingers
  end

#!OML:ASF F:\twosubjects\two\wednesday\Session 1\Justin1.ASF
:FULLY-SPECIFIED
:DEGREES
148
root 14.7235 17.8036 7.21037 1.22193 8.02713 -1.6286
lowerback 3.30299 3.11218 -0.380775
upperback 1.37127 4.14559 1.1822
thorax -0.555877 2.06992 1.26583
lowerneck 1.27099 -14.0226 -19.1305
upperneck 12.7583 -20.8859 17.1628
head 7.56526 -10.3178 6.74437
rclavicle -4.14218e-014 -8.15017e-015
rhumerus -25.9153 -14.1862 -84.4152
rradius 27.7565
rwrist -10.4826
rhand -17.7447 18.8494
rfingers 7.12502
rthumb 8.51672 -10.9588
lclavicle -4.14218e-014 -8.15017e-015
lhumerus -47.8227 34.2951 55.2313
lradius 18.0986
lwrist -26.5816
lhand 2.91617 34.3029
lfingers 7.12502
lthumb 28.3805 62.1715
rfemur 2.29232 0.000906926 21.4468
rtibia 45.187
rfoot 15.7022 -1.54676
rtoes 8.44868
lfemur -25.8295 -0.440782 -16.2093
ltibia 33.0429
lfoot -8.75068 -6.30734
ltoes -12.5471
149
root 14.7771 17.8201 7.36429 0.953438 7.27316 -1.06617
lowerback 3.45696 3.01529 -0.90074
upperback 1.51112 3.99811 1.06317
thorax -0.52145 1.9942 1.4349
lowerneck 1.08463 -13.8396 -18.9869
upperneck 12.8167 -20.5492 16.7962
head 7.49174 -10.1576 6.64517
rclavicle 3.28492e-014 2.5842e-015
rhumerus -25.0362 -12.2839 -85.3663
rradius 28.2154
rwrist -10.9637
rhand -17.9955 18.9994
rfingers 7.12502
rthumb 8.27467 -10.8186
lclavicle 3.28492e-014 2.5842e-015
lhumerus -47.6148 35.0565 54.4961
lradius 17.5138
lwrist -27.6409
lhand 1.88346 33.9568
lfingers 7.12502
lthumb 27.3931 61.9857
rfemur 1.0593 0.257262 20.5812
rtibia 47.7896
rfoot 15.7254 -2.51552
rtoes 10.0636
lfemur -24.6117 -0.255201 -16.9107
ltibia 32.917
lfoot -9.51682 -5.49445
ltoes -11.8967
150
root 14.8305 17.8278 7.51688 0.610649 6.50721 -0.798865
lowerback 3.54323 3.02179 -1.05837
upperback 1.81322 4.00018 1.04667
thorax -0.269281 1.99146 1.51118
lowerneck 0.963784 -13.7287 -18.6671
upperneck 12.3675 -20.2697 16.4853
head 7.24375 -10.0236 6.53636
rclavicle -2.1419e-014 -4.57205e-015
rhumerus -23.8501 -10.6146 -86.1184
rradius 28.6248
rwrist -11.6457
rhand -18.1237 19.4595
rfingers 7.12502
rthumb 8.15092 -10.3632
lclavicle -2.1419e-014 -4.57205e-015
lhumerus -46.6391 35.1927 54.948
lradius 17.3349
lwrist -27.8376
lhand 1.75247 34.7232
lfingers 7.12502
lthumb 27.2678 62.7718
rfemur -0.129022 0.529948 20.1088
rtibia 50.317
rfoot 14.5283 -4.03006
rtoes 8.44383
lfemur -23.3521 -0.107313 -17.2362
ltibia 32.6046
lfoot -9.76093 -4.85559
ltoes -9.87012
151
root 14.8862 17.8404 7.66937 0.374239 5.73406 -0.604281
lowerback 3.47195 3.03884 -1.05984
upperback 2.06923 4.02268 1.02916
thorax 0.0334696 1.9993 1.50649
lowerneck 0.670683 -13.7373 -18.6759
upperneck 12.3024 -20.1922 16.2736
head 7.2361 -9.98166 6.45747
rclavicle 4.31363e-014 1.98785e-016
rhumerus -22.6494 -9.13527 -86.7528
rradius 29.0191
rwrist -12.0148
rhand -18.1099 19.3993
rfingers 7.12502
rthumb 8.16422 -10.423
lclavicle 4.31363e-014 1.98785e-016
lhumerus -45.9788 36.0195 54.7649
lradius 17.0731
lwrist -28.773
lhand 1.9523 35.8052
lfingers 7.12502
lthumb 27.459 63.8236
rfemur -1.41942 0.751247 19.7372
rtibia 52.6505
rfoot 12.9262 -5.50122
rtoes 5.51371
lfemur -22.2062 0.0571399 -17.4893
ltibia 32.1786
lfoot -9.53374 -4.33127
ltoes -9.181
152
root 14.9312 17.8696 7.82396 0.253185 4.85859 -0.789445
lowerback 3.38869 3.00503 -0.755889
upperback 2.08638 3.98646 1.05723
thorax 0.11717 1.98277 1.37325
lowerneck 0.214904 -13.7248 -18.8277
upperneck 12.9318 -20.1216 15.9226
head 7.48168 -9.94058 6.33619
rclavicle -2.127e-014 1.98785e-016
rhumerus -21.7564 -7.76548 -87.4938
rradius 29.4323
rwrist -11.6904
rhand -17.8057 18.9899
rfingers 7.12502
rthumb 8.45787 -10.8208
lclavicle -2.127e-014 1.98785e-016
lhumerus -45.5659 36.7382 54.1174
lradius 16.613
lwrist -29.8821
lhand 1.89936 36.4616
lfingers 7.12502
lthumb 27.4083 64.488
rfemur -2.91015 1.11504 19.8995
rtibia 54.7712
rfoot 11.3988 -7.06961
rtoes 4.34257
lfemur -21.1111 0.368203 -17.3069
ltibia 31.6368
lfoot -9.56917 -3.80354
ltoes -10.456
153
root 14.9816 17.8975 7.9886 0.150052 4.31227 -0.688369
lowerback 3.22351 2.90737 -0.66888
upperback 2.10777 3.85897 1.02353
thorax 0.242959 1.91909 1.30509
lowerneck -0.00155647 -13.5785 -18.9163
upperneck 13.1766 -19.8893 15.7901
head 7.54993 -9.82753 6.32596
rclavicle -2.04003e-014 -6.95746e-015
rhumerus -21.0331 -6.30535 -88.1335
rradius 29.943
rwrist -11.4473
rhand -18.1941 19.8524
rfingers 7.12502
rthumb 8.083 -9.97305
lclavicle -2.04003e-014 -6.95746e-015
lhumerus -44.7608 36.7312 54.2321
lradius 16.4168
lwrist -30.5466
lhand 1.92346 36.9959
lfingers 7.12502
lthumb 27.4314 65.0187
rfemur -4.1503 0.883344 19.649
rtibia 56.6279
rfoot 10.0727 -8.1187
rtoes 3.12772
lfemur -19.9591 0.627183 -17.5284
ltibia 31.0987
lfoot -10.0161 -3.48639
ltoes -11.5753
154
root 15.0322 17.9177 8.14693 -0.06136 3.90504 0.295254
lowerback 3.17244 2.79369 -1.57321
upperback 2.27973 3.68551 0.8413
thorax 0.408593 1.82244 1.63571
lowerneck -0.0622173 -13.3888 -19.0083
upperneck 12.9918 -19.6073 15.8972
head 7.46934 -9.69155 6.41717
rclavicle 2.03506e-014 -5.56597e-015
rhumerus -20.0991 -4.90477 -88.6396
rradius 30.4495
rwrist -11.2199
rhand -18.6074 21.1638
rfingers 7.12502
rthumb 7.68414 -8.67664
lclavicle 2.03506e-014 -5.56597e-015
lhumerus -44.2123 37.2566 54.1869
lradius 16.3735
lwrist -31.8715
lhand 1.81038 37.4235
lfingers 7.12502
lthumb 27.3232 65.4634
rfemur -5.14399 0.363525 18.3425
rtibia 58.2676
rfoot 8.95907 -8.84862
rtoes 3.15628
lfemur -18.7263 0.688748 -18.7414
ltibia 30.7302
lfoot -10.515 -3.06616
ltoes -11.1709
155
root 15.0574 17.9315 8.28624 -0.334325 3.15327 0.294745
lowerback 3.40587 2.76185 -1.7372
upperback 2.27657 3.63516 0.919769
thorax 0.262174 1.79659 1.79642
lowerneck -0.121505 -13.3242 -18.8024
upperneck 13.0841 -19.4519 15.4497
head 7.4102 -9.62652 6.26056
rclavicle 3.3694e-014 -2.38542e-015
rhumerus -19.3398 -3.53859 -89.2366
rradius 30.994
rwrist -11.0805
rhand -17.3316 20.8795
rfingers 7.12502
rthumb 8.91532 -8.91218
lclavicle 3.3694e-014 -2.38542e-015
lhumerus -43.6682 37.4614 54.147
lradius 16.175
lwrist -32.9509
lhand 1.23575 37.7643
lfingers 7.12502
lthumb 26.7735 65.8896
rfemur -6.39748 0.559091 18.455
rtibia 59.686
rfoot 7.77642 -10.3986
rtoes 6.69171
lfemur -17.6416 1.02717 -18.7161
ltibia 30.3889
lfoot -10.8049 -2.6073
ltoes -9.50947
156
root 15.0831 17.9454 8.43385 -0.623827 2.51167 -0.739199
lowerback 3.69228 2.73391 -0.783152
upperback 2.07021 3.62392 1.29796
thorax -0.0751085 1.80125 1.63106
lowerneck -0.0906289 -13.3 -18.4521
upperneck 13.5146 -19.3075 14.3951
head 7.3693 -9.59206 5.88725
rclavicle 5.97845e-014 -5.76476e-015
rhumerus -19.2338 -2.25964 -89.6845
rradius 31.8499
rwrist -11.2384
rhand -16.1792 20.1425
rfingers 7.12502
rthumb 10.0273 -9.5986
lclavicle 5.97845e-014 -5.76476e-015
lhumerus -42.809 36.2889 55.0619
lradius 16.3011
lwrist -32.7227
lhand 0.832244 38.2897
lfingers 7.12502
lthumb 26.3873 66.4735
rfemur -7.55503 0.802092 19.7609
rtibia 60.8112
rfoot 6.46223 -12.1953
rtoes 8.89912
lfemur -16.5458 1.50213 -17.5644
ltibia 29.94
lfoot -11.0678 -2.38896
ltoes -8.18794
157
root 15.1285 17.9639 8.61103 -1.02499 2.49262 -0.315615
lowerback 3.68006 2.55075 -1.13897
upperback 2.11087 3.36909 1.33137
thorax -0.0399405 1.67066 1.87572
lowerneck 0.305212 -13.0937 -18.6472
upperneck 13.4639 -19.035 14.1866
head 7.23528 -9.50094 5.91734
rclavicle -1.73937e-016 -7.95139e-015
rhumerus -18.9516 -1.06284 -89.9407
rradius 32.8037
rwrist -11.2166
rhand -15.9437 19.8395
rfingers 7.12502
rthumb 10.2545 -9.89055
lclavicle -1.73937e-016 -7.95139e-015
lhumerus -41.8831 35.3364 55.9933
lradius 16.5162
lwrist -32.5587
lhand 0.609787 38.6717
lfingers 7.12502
lthumb 26.1743 66.8873
rfemur -8.05687 0.0998068 19.0676
rtibia 61.6809
rfoot 5.05563 -13.0001
rtoes 8.91146
lfemur -15.063 1.4321 -18.1788
ltibia 29.4
lfoot -11.528 -2.21509
ltoes -7.68713
158
root 15.1792 17.9793 8.78608 -1.28199 2.54065 0.820706
lowerback 3.49224 2.33704 -2.12494
upperback 2.1826 3.05707 1.07008
thorax 0.1153 1.50569 2.18145
lowerneck 0.824354 -12.8668 -18.951
upperneck 13.1401 -18.8127 14.496
head 7.06464 -9.42076 6.13506
rclavicle -1.70458e-014 6.75868e-015
rhumerus -18.4111 0.33543 -90.2618
rradius 33.684
rwrist -10.9137
rhand -15.2362 19.5836
rfingers 7.12502
rthumb 10.9369 -10.1115
lclavicle -1.70458e-014 6.75868e-015
lhumerus -41.5306 37.4022 54.4055
lradius 15.3054
lwrist -35.7454
lhand -0.658686 38.0965
lfingers 7.12502
lthumb 24.9593 66.4864
rfemur -8.6335 -0.740102 17.4789
rtibia 62.3822
rfoot 4.16517 -12.9587
rtoes 7.22645
lfemur -13.6296 1.2426 -19.6417
ltibia 28.733
lfoot -11.9512 -1.95637
ltoes -7.96532
159
root 15.2215 18.0057 8.93319 -1.09176 2.2359 1.28344
lowerback 3.13601 2.14828 -2.56857
upperback 2.09825 2.80121 1.01032
thorax 0.223831 1.3735 2.39034
lowerneck 0.598182 -12.8061 -18.9734
upperneck 13.3716 -18.6662 14.187
head 7.12315 -9.3554 6.04073
rclavicle 5.29264e-015 0
rhumerus -17.7218 1.46472 -90.6188
rradius 34.3147
rwrist -10.2624
rhand -14.5398 19.6786
rfingers 7.12502
rthumb 11.6086 -9.97987
lclavicle 5.29264e-015 0
lhumerus -41.4248 39.6029 52.9417
lradius 14.5793
lwrist -38.6105
lhand -2.0255 37.9817
lfingers 7.12502
lthumb 23.6489 66.5472
rfemur -10.0016 -0.903823 16.9039
rtibia 62.9216
rfoot 3.59567 -13.0703
rtoes 4.03454
lfemur -12.8237 1.19942 -20.3116
ltibia 28.0319
lfoot -12.1731 -1.5058
ltoes -8.27598
160
root 15.2593 18.0312 9.07803 -1.00524 1.91445 1.40297
lowerback 2.78723 1.97577 -2.7271
upperback 2.14622 2.57697 1.13231
thorax 0.469424 1.25486 2.62618
lowerneck 0.130053 -12.7632 -19.0094
upperneck 13.6956 -18.4831 13.7259
head 7.23408 -9.2696 5.88575
rclavicle 1.36416e-014 3.97569e-016
rhumerus -16.8789 2.1242 -90.839
rradius 34.937
rwrist -9.59597
rhand -14.1293 19.4922
rfingers 7.12502
rthumb 12.0044 -10.1435
lclavicle 1.36416e-014 3.97569e-016
lhumerus -38.9575 33.9276 58.3145
lradius 17.5037
lwrist -31.9147
lhand -2.07159 39.9609
lfingers 7.12502
lthumb 23.6047 68.5321
rfemur -11.2734 -0.998933 16.7861
rtibia 63.2952
rfoot 2.47784 -13.3398
rtoes 3.56096
lfemur -12.0392 1.22328 -20.5596
ltibia 27.4752
lfoot -12.4285 -1.15283
ltoes -8.40954
161
root 15.3053 18.0401 9.24235 -1.26094 1.36845 0.585636
lowerback 2.70889 1.96154 -1.66751
upperback 2.0792 2.5799 1.42691
thorax 0.475596 1.26601 2.3365
lowerneck 0.153991 -12.6954 -18.8975
upperneck 14.0064 -18.3323 13.1451
head 7.23648 -9.22249 5.70128
rclavicle 5.24295e-015 -7.95139e-016
rhumerus -16.7865 2.69872 -90.9961
rradius 36.0923
rwrist -9.46039
rhand -13.9344 19.4197
rfingers 7.12502
rthumb 12.1923 -10.205
lclavicle 5.24295e-015 -7.95139e-016
lhumerus -37.6922 33.1112 59.0384
lradius 16.8927
lwrist -31.5805
lhand -2.46219 39.8442
lfingers 7.12502
lthumb 23.23 68.4631
rfemur -12.1079 -1.04297 17.6586
rtibia 63.5162
rfoot 1.00946 -13.489
rtoes 4.95226
lfemur -10.9227 1.58349 -19.7598
ltibia 27.0942
lfoot -12.8919 -0.939975
ltoes -8.64853
